<svg xmlns="http://www.w3.org/2000/svg">

    <!-- registration request -->
    <symbol id="regRequest" viewBox="0 0 235 210">
        <title>Registration Request</title>
        <desc>Registration Request</desc>
        <path fill-rule="evenodd" clip-rule="evenodd" d="M108.1 192.7H126.9V197.4H108.1V192.7ZM9.4 184.42V50.5801C9.4 46.0086 13.6227 42.3 18.8 42.3H131.6V32.9H9.4C4.22266 32.9 0 37.1227 0 42.3V197.4C0 202.577 4.22266 206.8 9.4 206.8H225.6C230.777 206.8 235 202.577 235 197.4V178.6H225.6V184.42H9.4ZM117.5 211.5H98.4246C98.4246 211.5 100.059 225.086 95.2301 230.3C92.4578 233.219 95.2301 235 95.2301 235H139.77C139.77 235 142.542 233.219 139.77 230.3C134.941 225.086 136.575 211.5 136.575 211.5H117.5ZM175.075 159.8H196.225C198.153 159.8 198.153 169.2 196.225 169.2H175.075C173.147 169.2 173.147 159.8 175.075 159.8ZM178.6 9.4V4.7H197.4V9.4H178.6ZM155.1 14.1H216.2C221.377 14.1 225.6 19.0387 225.6 23.8672V146.361C225.6 151.208 221.377 155.1 216.2 155.1H155.1C149.923 155.1 145.7 151.208 145.7 146.361V22.8391C145.7 17.9922 149.923 14.1 155.1 14.1ZM150.914 0C142.836 0 136.3 6.24219 136.3 13.9164V159.984C136.3 167.658 142.836 173.9 150.914 173.9H220.386C228.464 173.9 235 167.658 235 159.984V13.9164C235 6.24219 228.464 0 220.386 0H150.914Z" fill="#D71921"/>
        <path d="M113.6 70H35.4C33.5194 70 32 71.5194 32 73.4V151.6C32 153.481 33.5194 155 35.4 155H113.6C115.481 155 117 153.481 117 151.6V73.4C117 71.5194 115.481 70 113.6 70ZM94.9 115.05C94.9 115.518 94.5175 115.9 94.05 115.9H77.9V132.05C77.9 132.518 77.5175 132.9 77.05 132.9H71.95C71.4825 132.9 71.1 132.518 71.1 132.05V115.9H54.95C54.4825 115.9 54.1 115.518 54.1 115.05V109.95C54.1 109.483 54.4825 109.1 54.95 109.1H71.1V92.95C71.1 92.4825 71.4825 92.1 71.95 92.1H77.05C77.5175 92.1 77.9 92.4825 77.9 92.95V109.1H94.05C94.5175 109.1 94.9 109.483 94.9 109.95V115.05Z" fill="#D71921"/>
       </symbol>

    <!-- de-registration request -->
    <symbol id="deRegRequest" viewBox="0 0 235 210">
        <title>De-registration Request</title>
        <desc>De-registration Request</desc>
        <path fill-rule="evenodd" clip-rule="evenodd" d="M108.56 193.52H127.44V198.24H108.56V193.52ZM9.44 185.205V50.7953C9.44 46.2044 13.6806 42.48 18.88 42.48H132.16V33.04H9.44C4.24063 33.04 0 37.2806 0 42.48V198.24C0 203.439 4.24063 207.68 9.44 207.68H226.56C231.759 207.68 236 203.439 236 198.24V179.36H226.56V185.205H9.44ZM118 212.4H98.8434C98.8434 212.4 100.484 226.044 95.6353 231.28C92.8512 234.212 95.6353 236 95.6353 236H140.365C140.365 236 143.149 234.212 140.365 231.28C135.516 226.044 137.157 212.4 137.157 212.4H118ZM175.82 160.48H197.06C198.996 160.48 198.996 169.92 197.06 169.92H175.82C173.884 169.92 173.884 160.48 175.82 160.48ZM179.36 9.44V4.72H198.24V9.44H179.36ZM155.76 14.16H217.12C222.319 14.16 226.56 19.1197 226.56 23.9687V146.984C226.56 151.851 222.319 155.76 217.12 155.76H155.76C150.561 155.76 146.32 151.851 146.32 146.984V22.9362C146.32 18.0687 150.561 14.16 155.76 14.16ZM151.556 0C143.444 0 136.88 6.26875 136.88 13.9756V160.664C136.88 168.371 143.444 174.64 151.556 174.64H221.324C229.436 174.64 236 168.371 236 160.664V13.9756C236 6.26875 229.436 0 221.324 0H151.556Z" fill="#D71921"/>
        <path d="M45.897 150.057L23.9933 167.265V76.3066C23.9933 75.0027 24.5113 73.7521 25.4333 72.83C26.3554 71.908 27.606 71.39 28.9099 71.39H117.41C118.714 71.39 119.964 71.908 120.886 72.83C121.809 73.7521 122.327 75.0027 122.327 76.3066V145.14C122.327 146.444 121.809 147.694 120.886 148.616C119.964 149.539 118.714 150.057 117.41 150.057H45.897ZM80.117 110.723L92.2808 98.5545L85.3286 91.6024L73.1599 103.771L60.9912 91.5974L54.039 98.5545L66.2078 110.723L54.0341 122.892L60.9863 129.844L73.1599 117.675L85.3286 129.844L92.2808 122.892L80.1121 110.723H80.117Z" fill="#D71921"/>
    </symbol>

    <!-- awaiting documents -->
    <symbol id="awaitingDoc" viewBox="0 0 235 210">
        <title>Awaiting Documents</title>
        <desc>Awaiting Documents</desc>
        <path d="M74.6779 61.1001C75.9354 61.1001 77.1125 61.3398 78.2164 61.8192C79.3074 62.2496 80.2986 62.8851 81.1321 63.6889C81.9656 64.4926 82.6247 65.4483 83.071 66.5004C83.5681 67.5579 83.8167 68.7 83.8167 69.9125C83.8167 71.1251 83.5681 72.2602 83.071 73.3247C82.6253 74.3771 81.9667 75.3334 81.1336 76.1376C80.2919 76.9464 79.3031 77.5988 78.2164 78.0623C77.094 78.5068 75.8913 78.732 74.6779 78.725C73.4204 78.725 72.2433 78.5064 71.1393 78.0623C68.9501 77.1238 67.1995 75.4358 66.2263 73.3247C65.7653 72.2424 65.5317 71.0826 65.5391 69.9125C65.5391 68.7 65.7657 67.5649 66.2263 66.5004C66.7161 65.4358 67.3888 64.4982 68.2222 63.6874C69.063 62.8838 70.0354 62.2563 71.1393 61.8192C72.2522 61.3391 73.4587 61.0939 74.6779 61.1001ZM35.4394 82.3063C35.4293 80.7564 35.8963 79.2384 36.7813 77.9446C37.6663 76.6507 38.9295 75.6391 40.411 75.0378C41.4258 74.602 42.5242 74.3768 43.6351 74.3768C44.746 74.3768 45.8445 74.602 46.8593 75.0378C47.8536 75.4397 48.709 76.0107 49.4328 76.7439C50.1932 77.4419 50.7853 78.2667 51.2021 79.2185C51.6551 80.198 51.8892 81.2585 51.8892 82.331C51.8892 83.4035 51.6551 84.464 51.2021 85.4436C50.3715 87.329 48.8146 88.8303 46.8593 89.6312C44.7902 90.445 42.4728 90.445 40.4036 89.6312C39.4324 89.239 38.5431 88.68 37.779 87.9815C37.0538 87.2426 36.4741 86.3826 36.0682 85.4436C35.6484 84.4474 35.4348 83.3816 35.4394 82.3063V82.3063ZM30.8115 105.162C31.7724 105.146 32.7261 105.324 33.6114 105.684C34.4966 106.045 35.2937 106.58 35.9512 107.256C36.652 107.89 37.2073 108.659 37.5813 109.512C37.9553 110.366 38.1397 111.286 38.1226 112.212C38.1315 113.157 37.9373 114.093 37.5523 114.962C36.7944 116.639 35.408 117.978 33.6702 118.712C32.7671 119.084 31.7936 119.272 30.8115 119.262C29.8319 119.271 28.8611 119.083 27.9602 118.712C27.0964 118.352 26.3046 117.848 25.6207 117.225C24.9714 116.566 24.4468 115.802 24.0707 114.969C23.6848 114.098 23.4906 113.159 23.5005 112.212C23.4894 111.291 23.6716 110.377 24.0359 109.525C24.4002 108.674 24.9393 107.902 25.6207 107.256C26.292 106.584 27.0988 106.052 27.9915 105.691C28.8842 105.331 29.8439 105.151 30.8115 105.162V105.162ZM37.2672 142.118C37.2777 140.912 37.6498 139.734 38.3386 138.727C39.0274 137.72 40.0036 136.927 41.1494 136.443C41.9348 136.118 42.7805 135.951 43.6351 135.951C44.4897 135.951 45.3354 136.118 46.1209 136.443C46.9251 136.774 47.605 137.218 48.1753 137.768C49.0673 138.642 49.6732 139.75 49.9176 140.953C50.1619 142.156 50.034 143.402 49.5498 144.536C48.8653 146.025 47.6053 147.198 46.0378 147.805C44.4703 148.412 42.7191 148.405 41.1567 147.786C39.6553 147.143 38.4526 145.988 37.779 144.543C37.4379 143.777 37.2637 142.952 37.2672 142.118V142.118ZM74.6779 149.224C76.1986 149.224 77.4927 149.739 78.5601 150.768C79.078 151.254 79.4873 151.836 79.7627 152.48C80.0381 153.124 80.1737 153.815 80.1612 154.512C80.1737 155.208 80.0381 155.9 79.7627 156.543C79.4873 157.187 79.078 157.77 78.5601 158.255C78.0567 158.755 77.4525 159.149 76.7848 159.415C76.1171 159.681 75.4 159.811 74.6779 159.799C73.9557 159.811 73.2387 159.681 72.571 159.415C71.9033 159.149 71.2991 158.755 70.7957 158.255C70.2778 157.77 69.8685 157.187 69.5931 156.543C69.3177 155.9 69.1821 155.208 69.1946 154.512C69.1946 153.045 69.7283 151.798 70.7957 150.768C71.2991 150.269 71.9033 149.874 72.571 149.609C73.2387 149.343 73.9557 149.212 74.6779 149.224V149.224ZM101.122 142.118C101.122 140.87 101.561 139.827 102.438 138.981C103.315 138.135 104.397 137.712 105.691 137.712C106.985 137.712 108.075 138.135 108.945 138.981C109.822 139.827 110.261 140.87 110.261 142.118C110.261 143.366 109.822 144.416 108.945 145.255C108.521 145.67 108.014 145.996 107.454 146.214C106.895 146.432 106.295 146.538 105.691 146.524C105.088 146.538 104.488 146.432 103.929 146.214C103.369 145.996 102.862 145.67 102.438 145.255C102.008 144.847 101.67 144.357 101.444 143.818C101.217 143.278 101.108 142.7 101.122 142.118ZM118.544 108.687C119.024 108.682 119.501 108.772 119.943 108.952C120.386 109.131 120.786 109.396 121.118 109.731C121.465 110.051 121.74 110.436 121.926 110.863C122.112 111.29 122.205 111.749 122.2 112.212C122.205 112.675 122.112 113.134 121.926 113.561C121.74 113.988 121.465 114.374 121.118 114.694C120.786 115.028 120.386 115.293 119.943 115.473C119.501 115.652 119.024 115.742 118.544 115.737C118.064 115.742 117.588 115.652 117.145 115.473C116.703 115.293 116.303 115.028 115.971 114.694C115.624 114.374 115.349 113.988 115.163 113.561C114.977 113.134 114.883 112.675 114.889 112.212C114.883 111.749 114.977 111.29 115.163 110.863C115.349 110.436 115.624 110.051 115.971 109.731C116.303 109.396 116.703 109.131 117.145 108.952C117.588 108.772 118.064 108.682 118.544 108.687V108.687ZM105.691 72.6127C107.066 72.6127 108.36 72.8665 109.574 73.3882C111.981 74.3926 113.902 76.2426 114.947 78.5628C115.481 79.7331 115.751 80.9809 115.751 82.2993C115.751 83.6247 115.481 84.8725 114.947 86.0498C113.902 88.3701 111.981 90.2201 109.574 91.2245C108.352 91.7403 107.032 92.0044 105.699 92C104.324 92 103.03 91.7391 101.809 91.2245C99.4053 90.2174 97.4873 88.368 96.4429 86.0498C95.907 84.8698 95.6331 83.5946 95.6387 82.3063C95.6387 80.9809 95.9092 79.7331 96.4429 78.5628C97.4845 76.2412 99.4031 74.3887 101.809 73.3811C103.03 72.8665 104.324 72.6056 105.691 72.6056V72.6127Z" fill="#FFC107"/>
        <path fill-rule="evenodd" clip-rule="evenodd" d="M108.1 192.7H126.9V197.4H108.1V192.7ZM9.4 184.42V50.5801C9.4 46.0086 13.6227 42.3 18.8 42.3H131.6V32.9H9.4C4.22266 32.9 0 37.1227 0 42.3V197.4C0 202.577 4.22266 206.8 9.4 206.8H225.6C230.777 206.8 235 202.577 235 197.4V178.6H225.6V184.42H9.4ZM117.5 211.5H98.4246C98.4246 211.5 100.059 225.086 95.2301 230.3C92.4578 233.219 95.2301 235 95.2301 235H139.77C139.77 235 142.542 233.219 139.77 230.3C134.941 225.086 136.575 211.5 136.575 211.5H117.5ZM175.075 159.8H196.225C198.153 159.8 198.153 169.2 196.225 169.2H175.075C173.147 169.2 173.147 159.8 175.075 159.8ZM178.6 9.4V4.7H197.4V9.4H178.6ZM155.1 14.1H216.2C221.377 14.1 225.6 19.0387 225.6 23.8672V146.361C225.6 151.208 221.377 155.1 216.2 155.1H155.1C149.923 155.1 145.7 151.208 145.7 146.361V22.8391C145.7 17.9922 149.923 14.1 155.1 14.1ZM150.914 0C142.836 0 136.3 6.24219 136.3 13.9164V159.984C136.3 167.658 142.836 173.9 150.914 173.9H220.386C228.464 173.9 235 167.658 235 159.984V13.9164C235 6.24219 228.464 0 220.386 0H150.914Z" fill="#D71921"/>    
    </symbol>

    <!-- information requested -->
    <symbol id="infoReq" viewBox="0 0 235 199">
        <title>Information Requested</title>
        <desc>Information Requested</desc>
        <path fill-rule="evenodd" clip-rule="evenodd" d="M174.297 189.805H195.703C197.695 189.805 199.297 191.309 199.297 193.203C199.297 195.098 197.695 196.602 195.703 196.602H174.297C172.305 196.602 170.703 195.098 170.703 193.203C170.703 191.309 172.305 189.805 174.297 189.805ZM151.562 39.8438H218.145C223.398 39.8438 230.312 44.4922 230.312 49.1992V174.551C230.312 179.258 223.555 185.156 218.301 185.156H151.387C146.152 185.156 139.844 178.945 139.844 174.199L140 49.043C140 44.3555 146.309 39.8438 151.562 39.8438ZM149.805 30C141.641 30 135 36.0938 135 43.5938V186.406C135 193.906 141.641 200 149.805 200H220.195C228.359 200 235 193.906 235 186.406V43.5938C235 36.0938 228.359 30 220.195 30H200V35H170V30H149.805ZM20 0C8.94531 0 0 8.94531 0 20V230C0 241.055 8.94531 250 20 250H170C181.055 250 190 241.055 190 230V205H180V210C180 212.754 177.754 215 175 215H15C12.2461 215 10 212.754 10 210V15C10 12.2461 12.2461 10 15 10H175C177.754 10 180 13.4961 180 16.25V25H190V20C190 8.94531 181.055 0 170 0H20ZM82.5 220H106.699C112.246 220 116.699 224.492 116.699 230C116.699 235.508 112.246 240 106.699 240H82.5C76.9922 240 72.5 235.508 72.5 230C72.5 224.492 76.9922 220 82.5 220Z" fill="#D71921"/>
        <path fill-rule="evenodd" clip-rule="evenodd" d="M122.662 39.2141C117.043 33.5953 107.937 33.5953 102.318 39.2141L39.2141 102.328C33.5953 107.947 33.5953 117.043 39.2141 122.652L102.338 185.776C107.957 191.395 117.053 191.395 122.662 185.776L185.786 122.652C191.405 117.034 191.405 107.937 185.786 102.328L122.662 39.2141ZM112.49 73.75C111.266 73.7507 110.055 74.0079 108.936 74.5049C107.817 75.002 106.815 75.7279 105.993 76.636C105.172 77.5441 104.55 78.6141 104.167 79.7772C103.785 80.9403 103.65 82.1707 103.772 83.3891L107.162 117.363C107.276 118.698 107.887 119.941 108.873 120.847C109.86 121.753 111.151 122.256 112.49 122.256C113.83 122.256 115.121 121.753 116.107 120.847C117.094 119.941 117.704 118.698 117.818 117.363L121.209 83.3891C121.331 82.1707 121.196 80.9403 120.813 79.7772C120.431 78.6141 119.809 77.5441 118.987 76.636C118.166 75.7279 117.163 75.002 116.044 74.5049C114.925 74.0079 113.715 73.7507 112.49 73.75V73.75ZM112.51 131.875C109.94 131.875 107.476 132.896 105.66 134.712C103.843 136.529 102.822 138.993 102.822 141.562C102.822 144.132 103.843 146.596 105.66 148.413C107.476 150.229 109.94 151.25 112.51 151.25C115.079 151.25 117.543 150.229 119.36 148.413C121.177 146.596 122.197 144.132 122.197 141.562C122.197 138.993 121.177 136.529 119.36 134.712C117.543 132.896 115.079 131.875 112.51 131.875Z" fill="#FFC107"/>    
    </symbol>

    <!-- help -->
    <symbol id="help" viewBox="0 0 128 128">
        <title>Help</title>
        <desc>Help</desc>
        <path d="M64,128a64,64,0,1,1,64-64A64.07,64.07,0,0,1,64,128ZM64,9.75A54.25,54.25,0,1,0,118.25,64,54.32,54.32,0,0,0,64,9.75ZM59.82,80.64c-2.94-9.39,2-13.77,5-14.77l.75-.24h.79A13.11,13.11,0,1,0,53.23,52.52H43.48A22.86,22.86,0,1,1,68.66,75.26a8.85,8.85,0,0,0,.47,2.46Zm8.92-6Zm.54,13.79H59.53v9.75h9.75Z"/>
    </symbol>

    <!-- help i -->
    <symbol id="helpi" viewBox="0 0 128 128">
        <title>Help</title>
        <desc>Help</desc>
        <circle cx="64" cy="64" r="60.5" fill="#fff"/>
        <path d="M64,7A57,57,0,1,1,7,64,57.06,57.06,0,0,1,64,7m0-7a64,64,0,1,0,64,64A64,64,0,0,0,64,0Z"/>
        <path d="M53.12,100.57q-3.27-3.33-3.27-10a37.9,37.9,0,0,1,.89-7.21l7.54-35.63h16l-8,37.74A13.54,13.54,0,0,0,65.83,89a4,4,0,0,0,1.06,3.16,5.17,5.17,0,0,0,3.49,1,8.82,8.82,0,0,0,3.55-.67Q73.5,98,70,101a12.43,12.43,0,0,1-8.27,2.94A11.52,11.52,0,0,1,53.12,100.57Zm9.94-61.38A8.42,8.42,0,0,1,60.5,33a8.63,8.63,0,0,1,2.56-6.28,8.38,8.38,0,0,1,6.21-2.6A8.89,8.89,0,0,1,78.15,33a8.35,8.35,0,0,1-2.61,6.21,8.65,8.65,0,0,1-6.27,2.55A8.45,8.45,0,0,1,63.06,39.19Z"/>
    </symbol>

    <!-- inreview registration -->
    <symbol id="inrevReg" viewBox="0 0 236.87 207.75">
        <title>Inreview Registration</title>
        <desc>Inreview Registration</desc>
        <path fill-rule="evenodd" clip-rule="evenodd" d="M67.6727 67.8195H81.9562V89.7774H67.6727C61.4305 89.7774 56.4 84.8938 56.4 78.8168C56.4 72.7582 61.4305 67.8195 67.6727 67.8195ZM90.9523 35.6723L101.417 45.8801L86.4359 60.5309L75.8977 50.2863C71.3445 45.825 71.0141 38.9586 75.1449 34.9195C79.2941 30.8805 86.3809 31.2109 90.9523 35.6723ZM150.308 122.806L139.825 112.561L154.806 97.9473L165.345 108.192C169.898 112.616 170.228 119.52 166.097 123.559C161.966 127.598 154.861 127.23 150.308 122.806ZM90.9523 122.806L101.417 112.561L86.4359 97.9473L75.8977 108.192C71.3445 112.616 71.0141 119.52 75.1449 123.559C79.2941 127.598 86.3809 127.23 90.9523 122.806ZM150.308 35.6723L139.825 45.8801L154.806 60.5309L165.345 50.2863C169.898 45.825 170.228 38.9586 166.097 34.9195C161.966 30.8805 154.861 31.2109 150.308 35.6723ZM172.027 67.8195H157.744V89.7774H172.027C178.27 89.7774 183.3 84.8938 183.3 78.8168C183.3 72.7582 178.27 67.8195 172.027 67.8195ZM108.945 28.2918V42.2449H131.453V28.2918C131.453 22.2332 126.423 18.8 120.18 18.8C113.975 18.8 108.945 22.2332 108.945 28.2918ZM108.945 131.508V115.15H131.453V131.508C131.453 137.567 126.423 141 120.18 141C113.975 141 108.945 137.567 108.945 131.508ZM93.9449 78.8168C93.9449 64.6801 105.695 53.2055 120.18 53.2055C134.703 53.2055 146.453 64.6801 146.453 78.8168C146.453 92.9719 134.703 104.446 120.18 104.446C105.695 104.446 93.9449 92.9719 93.9449 78.8168ZM78.9086 78.8168C78.9086 101.05 97.3781 119.042 120.18 119.042C143.02 119.042 161.489 101.05 161.489 78.8168C161.489 56.5836 143.02 38.5914 120.18 38.5914C97.3781 38.5914 78.9086 56.5836 78.9086 78.8168ZM108.1 159.8H126.9V164.5H108.1V159.8ZM9.4 151.52V17.6801C9.4 13.1086 13.6227 9.4 18.8 9.4H216.2C221.377 9.4 225.6 13.1086 225.6 17.6801V151.52H9.4ZM0 164.5C0 169.677 4.22266 173.9 9.4 173.9H225.6C230.777 173.9 235 169.677 235 164.5V9.4C235 4.22266 230.777 0 225.6 0H9.4C4.22266 0 0 4.22266 0 9.4V164.5ZM117.5 178.6H98.4062C98.4062 178.6 100.059 192.186 95.2301 197.4C92.4578 200.319 95.2301 202.1 95.2301 202.1H139.77C139.77 202.1 142.542 200.319 139.77 197.4C134.941 192.186 136.594 178.6 136.594 178.6H117.5Z" fill="#D71921"/>
    </symbol>
    <!-- inreview de-registration -->
    <symbol id="inrevDeReg" viewBox="0 0 236.87 207.75">
        <title>Inreview De-registration</title>
        <desc>Inreview De-registration</desc>
        <path fill-rule="evenodd" clip-rule="evenodd" d="M67.6727 67.8195H81.9562V89.7774H67.6727C61.4305 89.7774 56.4 84.8938 56.4 78.8168C56.4 72.7582 61.4305 67.8195 67.6727 67.8195ZM90.9523 35.6723L101.417 45.8801L86.4359 60.5309L75.8977 50.2863C71.3445 45.825 71.0141 38.9586 75.1449 34.9195C79.2941 30.8805 86.3809 31.2109 90.9523 35.6723ZM150.308 122.806L139.825 112.561L154.806 97.9473L165.345 108.192C169.898 112.616 170.228 119.52 166.097 123.559C161.966 127.598 154.861 127.23 150.308 122.806ZM90.9523 122.806L101.417 112.561L86.4359 97.9473L75.8977 108.192C71.3445 112.616 71.0141 119.52 75.1449 123.559C79.2941 127.598 86.3809 127.23 90.9523 122.806ZM150.308 35.6723L139.825 45.8801L154.806 60.5309L165.345 50.2863C169.898 45.825 170.228 38.9586 166.097 34.9195C161.966 30.8805 154.861 31.2109 150.308 35.6723ZM172.027 67.8195H157.744V89.7774H172.027C178.27 89.7774 183.3 84.8938 183.3 78.8168C183.3 72.7582 178.27 67.8195 172.027 67.8195ZM108.945 28.2918V42.2449H131.453V28.2918C131.453 22.2332 126.423 18.8 120.18 18.8C113.975 18.8 108.945 22.2332 108.945 28.2918ZM108.945 131.508V115.15H131.453V131.508C131.453 137.567 126.423 141 120.18 141C113.975 141 108.945 137.567 108.945 131.508ZM93.9449 78.8168C93.9449 64.6801 105.695 53.2055 120.18 53.2055C134.703 53.2055 146.453 64.6801 146.453 78.8168C146.453 92.9719 134.703 104.446 120.18 104.446C105.695 104.446 93.9449 92.9719 93.9449 78.8168ZM78.9086 78.8168C78.9086 101.05 97.3781 119.042 120.18 119.042C143.02 119.042 161.489 101.05 161.489 78.8168C161.489 56.5836 143.02 38.5914 120.18 38.5914C97.3781 38.5914 78.9086 56.5836 78.9086 78.8168ZM108.1 159.8H126.9V164.5H108.1V159.8ZM9.4 151.52V17.6801C9.4 13.1086 13.6227 9.4 18.8 9.4H216.2C221.377 9.4 225.6 13.1086 225.6 17.6801V151.52H9.4ZM0 164.5C0 169.677 4.22266 173.9 9.4 173.9H225.6C230.777 173.9 235 169.677 235 164.5V9.4C235 4.22266 230.777 0 225.6 0H9.4C4.22266 0 0 4.22266 0 9.4V164.5ZM117.5 178.6H98.4062C98.4062 178.6 100.059 192.186 95.2301 197.4C92.4578 200.319 95.2301 202.1 95.2301 202.1H139.77C139.77 202.1 142.542 200.319 139.77 197.4C134.941 192.186 136.594 178.6 136.594 178.6H117.5Z" fill="#D71921"/>
    </symbol>
    <symbol id="totalTac" viewBox="0 0 236.87 207.75">
        <title>Total Tacs</title>
        <desc>Total Tacs</desc>
        <path fill-rule="evenodd" clip-rule="evenodd" d="M64.3863 75.2H174.047C190.534 75.3469 193.967 32.2391 153.833 46.4859C153.741 3.34141 91.4113 2.53359 91.0809 48.6891C52.7832 21.0582 34.1668 72.9969 64.3863 75.2ZM140.431 112.855C134.85 107.017 126.625 103.4 117.5 103.4C108.375 103.4 100.15 107.017 94.5691 112.855L101.895 119.428C105.658 115.389 111.239 112.8 117.5 112.8C123.761 112.8 129.342 115.389 133.105 119.428L140.431 112.855ZM155.1 99.6363C145.755 90.3832 132.353 84.6 117.5 84.6C102.647 84.6 89.2449 90.3832 79.9 99.6363L87.2254 106.264C94.6977 98.7551 105.511 94 117.5 94C129.489 94 140.302 98.7551 147.775 106.264L155.1 99.6363ZM107.255 131.6C107.255 126.423 111.864 122.2 117.5 122.2C123.136 122.2 127.745 126.423 127.745 131.6C127.745 136.777 123.136 141 117.5 141C111.864 141 107.255 136.777 107.255 131.6ZM108.1 159.8H126.9V164.5H108.1V159.8ZM9.4 151.52V17.6801C9.4 13.1086 13.6227 9.4 18.8 9.4H216.2C221.377 9.4 225.6 13.1086 225.6 17.6801V151.52H9.4ZM0 164.5C0 169.677 4.22266 173.9 9.4 173.9H225.6C230.777 173.9 235 169.677 235 164.5V9.4C235 4.22266 230.777 0 225.6 0H9.4C4.22266 0 0 4.22266 0 9.4V164.5ZM117.5 178.6H98.4246C98.4246 178.6 100.059 192.186 95.2301 197.4C92.4394 200.319 95.2301 202.1 95.2301 202.1H139.77C139.77 202.1 142.561 200.319 139.77 197.4C134.941 192.186 136.575 178.6 136.575 178.6H117.5Z" fill="#D71921"/>
        </symbol>
</svg>